<?xml version="1.0" encoding="iso-8859-1"?>
<!-- Uploaded to: SVG Repo, www.svgrepo.com, Generator: SVG Repo Mixer Tools -->
<svg height="800px" width="800px" version="1.1" id="Capa_1" xmlns="http://www.w3.org/2000/svg" xmlns:xlink="http://www.w3.org/1999/xlink" 
	 viewBox="0 0 314.052 314.052" xml:space="preserve">
<g>
	<g>
		<path style="fill:#010002;" d="M105.34,107.097l-13.94,13.94c-2.127,2.127-2.127,5.57,0,7.691l70.604,70.615l-6.026,6.026
			c-4.248,4.248-4.248,11.134,0,15.382l90.816,90.816c2.127,2.127,6.152,3.068,9.002,2.11l4.922-1.659
			c1.702-0.571,3.796-1.713,5.689-2.981l-69.674-69.664c-1.061-1.061-1.061-2.785,0-3.845c1.061-1.061,2.785-1.061,3.845,0
			l70.033,70.028l20.391-20.391c2.127-2.127,4.596-6.162,5.526-9.018l1.501-4.629c0.93-2.856-0.044-6.897-2.165-9.018
			l-90.816-90.816c-4.248-4.248-11.134-4.248-15.382,0l-6.026,6.027l-70.61-70.615C110.904,104.975,107.461,104.975,105.34,107.097z
			"/>
		<path style="fill:#010002;" d="M70.508,123.212c2.127,2.127,5.57,2.127,7.691,0l33.467-33.467c2.127-2.127,2.127-5.57,0-7.691
			L58.422,28.812c-2.127-2.127-5.57-2.127-7.691,0L17.265,62.279c-2.127,2.127-2.127,5.57,0,7.691L70.508,123.212z"/>
		<path style="fill:#010002;" d="M103.621,61.903c2.127,2.127,5.57,2.127,7.691,0l25.634-25.634c2.127-2.127,2.127-5.57,0-7.691
			L109.963,1.595c-2.127-2.127-5.57-2.127-7.691,0L76.638,27.229c-2.127,2.127-2.127,5.57,0,7.691L103.621,61.903z"/>
	</g>
</g>
</svg>